<?xml version="1.0" encoding="utf-8"?>
<!-- Generator: Adobe Illustrator 27.0.0, SVG Export Plug-In . SVG Version: 6.00 Build 0)  -->
<svg version="1.1" id="Layer_1" xmlns="http://www.w3.org/2000/svg" xmlns:xlink="http://www.w3.org/1999/xlink" x="0px" y="0px"
	 viewBox="0 0 933.3 933.3" style="enable-background:new 0 0 933.3 933.3;" xml:space="preserve">
<style type="text/css">
	.st0{fill:#FFFFFF;stroke:#000000;stroke-miterlimit:10;}
</style>
<g>
	<path class="st0" d="M528.4,286.1h-18.2v0c-40.8,0-81.7-0.1-122.5,0.2c-4.2,0-9.3,2.1-12.3,5.1c-25.5,25.7-50.7,51.7-77.1,78.8
		c25.6,23.5,49.8,45.9,70.9,65.3c48.6-45.7,100.3-94.3,152.1-142.9h0L528.4,286.1z"/>
	<g>
		<path class="st0" d="M753.2,623.1v-45.9c0.1-1.4,0.1-2.7,0-3.9l0,0l0,0c-0.7-11.4-7.3-14.6-20.8-14.5c-91.2,0.7-182.5,0-273.8,0.6
			c-15.8,0.1-27.1-4.5-38.1-15.9C344.9,465,268.2,387.5,193,308.6c-14.2-14.9-28.5-21.2-48.4-20.7v0H36l0.4,0.5c0,0,0,0,0,0
			c6.2,7.2,9.2,11.2,12.6,14.7c106,109,212.1,217.8,317.8,327c10,10.3,20.1,14.8,34.6,14.7c109.8-0.6,219.5-0.7,329.3,0
			c1.3,0,2.4,0,3.6-0.1h18.9v-14.9C753.4,627.9,753.4,625.6,753.2,623.1z"/>
		<path class="st0" d="M185.6,499.2C136.7,544.2,84.8,591.8,33,639.4l-8.6,7.2h15.3l0,0c42.9,0,85.8,0.1,128.7-0.2
			c2.9,0,6.5-1.8,8.7-3.9c25.8-26.1,51.5-52.4,78.1-79.7C229.1,538.9,204.4,516.5,185.6,499.2z"/>
	</g>
	<path class="st0" d="M797.1,647.1c32,0,61-0.4,90,0.2c16,0.3,21.9-5.9,21.8-22.3c-0.6-66.1-0.1-132.3,0-198.4c0-39,0-78,0-117.1
		c0-7.1,0-14.2,0-22.3c-38,0-73.4,0-111.2,0c0,43.1,0,85.7,0,130c-72.6,0-142.9,0-214.7,0c0-42.2,0-83.6,0-128.4
		c-6,4.1-9.8,5.9-12.6,8.7c-30.1,30.7-60.2,61.4-89.8,92.6c-4.6,4.8-9.3,12.1-9.5,18.3c-0.9,33.6-0.4,67.3-0.4,103.3
		c8.8,0.5,16.5,1.3,24.2,1.3c92.6,0,185.2,0.3,277.8-0.7c19.2-0.2,25.5,5.8,24.8,24.8C796.2,572.5,797.1,608.1,797.1,647.1z"/>
</g>
</svg>
