<?xml version="1.0" encoding="utf-8"?>
<!-- Generator: Adobe Illustrator 27.0.0, SVG Export Plug-In . SVG Version: 6.00 Build 0)  -->
<svg version="1.1" id="Layer_1" xmlns="http://www.w3.org/2000/svg" xmlns:xlink="http://www.w3.org/1999/xlink" x="0px" y="0px"
	 viewBox="0 0 512 412" style="enable-background:new 0 0 512 412;" xml:space="preserve">
<style type="text/css">
	.st0{display:none;fill:none;}
	.st1{fill:#FFFFFF;}
	.st2{fill:#58595B;}
	.st3{fill:url(#SVGID_1_);stroke:#231F20;stroke-width:0.5835;stroke-miterlimit:10;}
	.st4{fill:url(#SVGID_00000106140036865992004110000012237370173970816693_);}
</style>
<path class="st0" d="M1.8-3.2h510.9v416.2H1.8V-3.2z"/>
<g>
	<g>
		<path class="st1" d="M447.6,260.2h-57v18c0,5.4-4.4,9.8-9.8,9.8H357v-55.7h93.9c10.4,0,16.5-5.1,16.5-12.6c0-7.7-6-12.4-16.5-12.4
			h-243l22.3-28.4h217.6c33.7,0,53.5,16.6,53.5,40.9C501.2,244.1,481.5,260.2,447.6,260.2z"/>
	</g>
	<path class="st2" d="M157.5,195.7c23.7-23.5,46.9-46.7,71-70.6c-3.3-0.4-5-0.7-6.7-0.7c-14,0-28.1-0.3-42.1,0.1
		c-3.2,0.1-7.2,1.7-9.5,3.9c-14,13.6-27.7,27.4-41.5,41.2L157.5,195.7z"/>
	<path class="st1" d="M146.6,206.5l-27.7-27.4c0,0,0,0-0.1,0.1c-13.4-13.7-27.1-26.6-39.4-40.7c-9.3-10.7-19.3-16.1-33.8-14.4
		c-10.9,1.3-22,0.3-34.8,0.3c2.3,2.5,3.6,4.1,5.1,5.6C67,180.9,118.1,232,169,283.1c3.5,3.5,7,5.2,12,5.1
		c15.2-0.3,30.3-0.1,45.5-0.1c0.3-0.5,0.7-1,1-1.5C200.7,260,173.9,233.5,146.6,206.5C146.6,206.5,146.6,206.5,146.6,206.5z"/>
	
		<radialGradient id="SVGID_1_" cx="-2708.9751" cy="253.0068" r="55.0776" gradientTransform="matrix(-1 0 0 1 -2627.9653 0)" gradientUnits="userSpaceOnUse">
		<stop  offset="0" style="stop-color:#FFEA4C"/>
		<stop  offset="0.5617" style="stop-color:#EBC51F"/>
		<stop  offset="1" style="stop-color:#DEAC00"/>
	</radialGradient>
	<path class="st3" d="M150.4,286.1c-23.7-23.7-46.2-46.2-68.4-68.4c-23,23-46.4,46.4-70.5,70.5c3.1,0,5.9,0,8.6,0
		c12.4,0,24.8-0.2,37.2,0.1c5.2,0.1,9.1-1.3,12.7-5.1c7.9-8.4,16.3-16.2,24.2-24.5c2.9-3.1,5.1-3.3,8.7-1
		C118.3,267,133.7,276.1,150.4,286.1z"/>
	
		<radialGradient id="SVGID_00000070090689610203056680000014727417214566792877_" cx="278.8946" cy="257.2037" r="54.7919" gradientUnits="userSpaceOnUse">
		<stop  offset="0" style="stop-color:#FFEA4C"/>
		<stop  offset="0.5617" style="stop-color:#EBC51F"/>
		<stop  offset="1" style="stop-color:#DEAC00"/>
	</radialGradient>
	<path style="fill:url(#SVGID_00000070090689610203056680000014727417214566792877_);" d="M241.6,234c0-2.7,0.4-5.3,1.2-7.7h-34.6
		c-0.2,2-0.4,4.1-0.4,6.2c0,31.6,27.9,55.6,65.7,55.6h54.8l21.7-28h-76.4C255.1,260.1,241.6,249.5,241.6,234z"/>
</g>
</svg>
