<?xml version="1.0" encoding="utf-8"?>
<!-- Generator: Adobe Illustrator 27.0.0, SVG Export Plug-In . SVG Version: 6.00 Build 0)  -->
<svg version="1.1" id="Layer_1" xmlns="http://www.w3.org/2000/svg" xmlns:xlink="http://www.w3.org/1999/xlink" x="0px" y="0px"
	 viewBox="0 0 24 24" style="enable-background:new 0 0 24 24;" xml:space="preserve">
<style type="text/css">
	.st0{display:none;fill:none;}
	.st1{fill:#FFFFFF;}
</style>
<path class="st0" d="M0,0h24v24H0V0z"/>
<path class="st1" d="M11.5,20.2h1v1h-1V20.2z M7.9,12.6c0.1,0.1,0.3,0.1,0.4,0.1c0.3,0,0.5-0.1,0.6-0.4l4-6.7c0.2-0.4,0.1-0.8-0.3-1
	c-0.4-0.2-0.8-0.1-1,0.3l-4,6.7C7.4,12,7.6,12.4,7.9,12.6z M19,3v18c0,1.7-1.3,3-3,3H8c-1.7,0-3-1.3-3-3V3c0-1.7,1.3-3,3-3h8
	C17.7,0,19,1.3,19,3z M10.5,2c0,0.3,0.2,0.5,0.5,0.5h2c0.3,0,0.5-0.2,0.5-0.5S13.3,1.5,13,1.5h-2C10.7,1.5,10.5,1.7,10.5,2z
	 M13.5,19.7c0-0.3-0.2-0.5-0.5-0.5h-2c-0.3,0-0.5,0.2-0.5,0.5v2c0,0.3,0.2,0.5,0.5,0.5h2c0.3,0,0.5-0.2,0.5-0.5L13.5,19.7L13.5,19.7
	z M17,4H7v14h10L17,4L17,4z M7.9,8.3C8,8.4,8.2,8.5,8.3,8.5c0.3,0,0.5-0.1,0.6-0.4l1.4-2.4c0.2-0.4,0.1-0.8-0.3-1
	c-0.4-0.2-0.8-0.1-1,0.3L7.7,7.3C7.4,7.7,7.6,8.1,7.9,8.3z"/>
</svg>
