<?xml version="1.0" encoding="utf-8"?>
<!-- Generator: Adobe Illustrator 27.0.0, SVG Export Plug-In . SVG Version: 6.00 Build 0)  -->
<svg version="1.1" id="Layer_1" xmlns="http://www.w3.org/2000/svg" xmlns:xlink="http://www.w3.org/1999/xlink" x="0px" y="0px"
	 viewBox="0 0 24 24" style="enable-background:new 0 0 24 24;" xml:space="preserve">
<style type="text/css">
	.st0{display:none;fill:none;}
	.st1{fill:#FFFFFF;}
</style>
<path class="st0" d="M0,0h24v24H0V0z"/>
<path class="st1" d="M18,3.8h-5.9c0,0.2,0,0.4-0.1,0.6l-1.2,3.4c-0.4,0.8-1.2,1.4-2,1.4H8.5L8.4,9.1H7.9C7.8,9.5,7.5,10.3,7.5,12
	s0.2,2.5,0.4,2.9h0.5h0.2h0.1c0.8,0,1.7,0.6,2,1.4l1.3,3.4c0.1,0.2,0.1,0.4,0.1,0.6H18c1.3,0,2.5-1.1,2.5-2.5V6.2
	C20.5,4.9,19.4,3.8,18,3.8z M13.7,17.5c-0.1,0.1-0.4,0.2-0.6,0.2s-0.5-0.1-0.6-0.2s-0.2-0.4-0.2-0.6s0.1-0.5,0.2-0.6
	c0.4-0.4,0.8-0.4,1.2,0c0.1,0.1,0.2,0.4,0.2,0.6S13.8,17.3,13.7,17.5z M13.7,15.1c-0.1,0.1-0.4,0.2-0.6,0.2s-0.5-0.1-0.6-0.2
	c-0.1-0.1-0.2-0.4-0.2-0.6s0.1-0.5,0.2-0.6c0.4-0.4,0.8-0.4,1.2,0c0.1,0.1,0.2,0.4,0.2,0.6S13.8,14.9,13.7,15.1z M13.7,12.6
	c-0.1,0.1-0.4,0.2-0.6,0.2s-0.5-0.1-0.6-0.2c-0.1-0.1-0.2-0.4-0.2-0.6s0.1-0.5,0.2-0.6c0.4-0.4,0.8-0.4,1.2,0
	c0.1,0.1,0.2,0.4,0.2,0.6S13.8,12.5,13.7,12.6z M16.1,17.5c-0.1,0.1-0.4,0.2-0.6,0.2s-0.5-0.1-0.6-0.2s-0.2-0.4-0.2-0.6
	s0.1-0.5,0.2-0.6c0.4-0.4,0.8-0.4,1.2,0c0.1,0.1,0.2,0.4,0.2,0.6C16.5,17.1,16.3,17.3,16.1,17.5z M16.2,15.1
	c-0.1,0.1-0.4,0.2-0.6,0.2s-0.5-0.1-0.6-0.2c-0.1-0.1-0.2-0.4-0.2-0.6s0.1-0.4,0.2-0.6c0.4-0.4,0.8-0.4,1.2,0
	c0.1,0.1,0.2,0.4,0.2,0.6S16.3,14.9,16.2,15.1z M16.2,12.6c-0.1,0.1-0.4,0.2-0.6,0.2s-0.5-0.1-0.6-0.2c-0.1-0.1-0.2-0.4-0.2-0.6
	s0.1-0.5,0.2-0.6c0.2-0.2,0.8-0.4,1.2,0c0.1,0.1,0.2,0.4,0.2,0.6S16.3,12.5,16.2,12.6z M18.6,17.5c-0.1,0.1-0.4,0.2-0.6,0.2
	s-0.5-0.1-0.6-0.2s-0.2-0.4-0.2-0.6s0.1-0.5,0.2-0.6c0.2-0.2,0.8-0.2,1.2,0c0.1,0.1,0.2,0.4,0.2,0.6S18.8,17.3,18.6,17.5z
	 M18.6,15.1c-0.1,0.1-0.4,0.2-0.6,0.2s-0.5-0.1-0.6-0.2c-0.1-0.1-0.2-0.4-0.2-0.6s0.1-0.5,0.2-0.6c0.4-0.4,0.8-0.4,1.2,0
	c0.1,0.1,0.2,0.4,0.2,0.6S18.8,14.9,18.6,15.1z M18.6,12.6c-0.1,0.1-0.4,0.2-0.6,0.2s-0.5-0.1-0.6-0.2c-0.1-0.1-0.2-0.4-0.2-0.6
	s0.1-0.5,0.2-0.6c0.4-0.4,0.8-0.4,1.2,0c0.1,0.1,0.2,0.4,0.2,0.6S18.8,12.5,18.6,12.6z M18.1,8.7h-5c-0.5,0-0.8-0.4-0.8-0.8
	S12.7,7,13.1,7h5C18.6,7,19,7.4,19,7.8C19,8.2,18.6,8.7,18.1,8.7z"/>
<path class="st1" d="M10.4,20.2c0.1,0.2,0,0.4-0.1,0.5l-2.4,1.9c-0.1,0.1-0.2,0.1-0.4,0.1H7.4c-0.1,0-4-1.4-4-10.7s3.9-10.6,4-10.7
	h0.1c0.1,0,0.2,0,0.2,0.1l2.4,1.9c0.1,0.1,0.2,0.2,0.2,0.4v0.1L9.2,7.2C9.1,7.5,9,7.6,8.7,7.6c0,0,0,0-0.1,0L7.3,7.4
	C7.1,7.4,5.8,8,5.8,12c0,3.9,1.3,4.5,1.5,4.6l1.3-0.2c0,0,0,0,0.1,0c0.2,0,0.4,0.1,0.5,0.4L10.4,20.2z"/>
</svg>
