<?xml version="1.0" encoding="utf-8"?>
<!-- Generator: Adobe Illustrator 27.0.0, SVG Export Plug-In . SVG Version: 6.00 Build 0)  -->
<svg version="1.1" id="Layer_1" xmlns="http://www.w3.org/2000/svg" xmlns:xlink="http://www.w3.org/1999/xlink" x="0px" y="0px"
	 viewBox="0 0 24 24" style="enable-background:new 0 0 24 24;" xml:space="preserve">
<style type="text/css">
	.st0{fill:none;}
	.st1{fill:#FFFFFF;}
</style>
<path class="st0" d="M0,0h24v24H0V0z"/>
<path class="st1" d="M18.8,2.8h-6.6c0,0.2,0,0.5-0.1,0.6l-1.4,3.9c-0.3,0.9-1.2,1.6-2.2,1.6l-0.2,0L8,8.9L7.4,8.8
	C7.2,9.2,7,10.1,7,12c0,1.9,0.3,2.8,0.5,3.2L8,15.1l0.2,0h0.2c1,0,1.9,0.6,2.2,1.6l1.4,3.9c0.1,0.2,0.1,0.4,0.1,0.6h6.6
	c1.5,0,2.8-1.2,2.8-2.8V5.5C21.6,4,20.3,2.8,18.8,2.8z M13.3,6.5h5.5c0.5,0,0.9,0.4,0.9,0.9s-0.4,0.9-0.9,0.9h-5.5
	c-0.5,0-0.9-0.4-0.9-0.9S12.8,6.5,13.3,6.5z M14,18.2c-0.2,0.2-0.4,0.3-0.6,0.3c-0.2,0-0.5-0.1-0.6-0.3c-0.2-0.2-0.3-0.4-0.3-0.7
	c0-0.2,0.1-0.5,0.3-0.6c0.4-0.4,1-0.4,1.3,0c0.2,0.2,0.3,0.4,0.3,0.6C14.2,17.8,14.1,18,14,18.2z M14,15.4c-0.2,0.2-0.4,0.3-0.6,0.3
	c-0.3,0-0.5-0.1-0.7-0.3c-0.2-0.2-0.3-0.4-0.3-0.6c0-0.2,0.1-0.5,0.3-0.6c0.4-0.4,1-0.4,1.3,0c0.2,0.2,0.3,0.4,0.3,0.6
	C14.2,15,14.1,15.3,14,15.4z M14,12.6c-0.2,0.2-0.4,0.3-0.6,0.3s-0.5-0.1-0.7-0.3c-0.2-0.2-0.3-0.4-0.3-0.6s0.1-0.5,0.3-0.6
	c0.4-0.4,1-0.4,1.3,0c0.2,0.2,0.3,0.4,0.3,0.6C14.2,12.2,14.1,12.5,14,12.6z M16.7,18.2c-0.2,0.2-0.4,0.3-0.6,0.3
	c-0.2,0-0.5-0.1-0.6-0.3c-0.2-0.2-0.3-0.4-0.3-0.7c0-0.2,0.1-0.5,0.3-0.6c0.4-0.4,1-0.4,1.3,0c0.2,0.2,0.3,0.4,0.3,0.6
	C17,17.8,16.9,18,16.7,18.2z M16.7,15.4c-0.2,0.2-0.4,0.3-0.7,0.3c-0.3,0-0.5-0.1-0.7-0.3c-0.2-0.2-0.3-0.4-0.3-0.6
	c0-0.2,0.1-0.5,0.3-0.6c0.4-0.4,1-0.4,1.3,0c0.2,0.2,0.3,0.4,0.3,0.6C17,15,16.9,15.3,16.7,15.4z M16.7,12.6
	c-0.2,0.2-0.4,0.3-0.7,0.3c-0.3,0-0.5-0.1-0.7-0.3c-0.2-0.2-0.3-0.4-0.3-0.6s0.1-0.5,0.3-0.6c0.3-0.3,0.9-0.4,1.3,0
	c0.2,0.2,0.3,0.4,0.3,0.6C17,12.2,16.9,12.5,16.7,12.6z M19.5,18.2c-0.2,0.2-0.4,0.3-0.6,0.3c-0.2,0-0.5-0.1-0.6-0.3
	c-0.2-0.2-0.3-0.4-0.3-0.7c0-0.2,0.1-0.5,0.3-0.7c0.3-0.3,0.9-0.3,1.3,0c0.2,0.2,0.3,0.4,0.3,0.6C19.8,17.8,19.7,18,19.5,18.2z
	 M19.5,15.4c-0.2,0.2-0.4,0.3-0.6,0.3c-0.3,0-0.5-0.1-0.7-0.3c-0.2-0.2-0.3-0.4-0.3-0.6c0-0.2,0.1-0.5,0.3-0.6c0.4-0.4,1-0.4,1.3,0
	c0.2,0.2,0.3,0.4,0.3,0.6C19.8,15,19.7,15.3,19.5,15.4z M19.5,12.6c-0.2,0.2-0.4,0.3-0.6,0.3c-0.2,0-0.5-0.1-0.7-0.3
	c-0.2-0.2-0.3-0.4-0.3-0.6s0.1-0.5,0.3-0.6c0.4-0.4,1-0.4,1.3,0c0.2,0.2,0.3,0.4,0.3,0.6C19.8,12.2,19.7,12.5,19.5,12.6z M10.3,21.2
	c0.1,0.2,0,0.5-0.2,0.6l-2.7,2.1C7.3,24,7.2,24,7.1,24C7.1,24,7,24,7,24c-0.2-0.1-4.5-1.6-4.5-12C2.4,1.6,6.8,0.1,7,0
	C7,0,7.1,0,7.1,0c0.1,0,0.2,0,0.3,0.1l2.7,2.1c0.1,0.1,0.2,0.3,0.2,0.4c0,0.1,0,0.1,0,0.2L8.9,6.7C8.8,6.9,8.6,7,8.4,7
	c0,0-0.1,0-0.1,0L6.8,6.8C6.6,6.9,5.1,7.5,5.1,12c0,4.4,1.4,5.1,1.7,5.2L8.3,17c0,0,0.1,0,0.1,0c0.2,0,0.4,0.1,0.5,0.3L10.3,21.2z"
	/>
</svg>
