<?xml version="1.0" encoding="utf-8"?>
<!-- Generator: Adobe Illustrator 27.0.0, SVG Export Plug-In . SVG Version: 6.00 Build 0)  -->
<svg version="1.1" id="Layer_1" xmlns="http://www.w3.org/2000/svg" xmlns:xlink="http://www.w3.org/1999/xlink" x="0px" y="0px"
	 viewBox="0 0 24 24" style="enable-background:new 0 0 24 24;" xml:space="preserve">
<style type="text/css">
	.st0{fill:none;}
	.st1{fill-rule:evenodd;clip-rule:evenodd;fill:#FFFFFF;}
	.st2{fill:#FFFFFF;}
</style>
<path class="st0" d="M0,0h24v24H0V0z"/>
<g>
	<path class="st1" d="M8.6,4.4c0-0.3,0.2-0.6,0.6-0.6h7.9c0.3,0,0.6,0.2,0.6,0.6v4.5h0.6c0.2,0,0.4,0.1,0.5,0.3l1.1,2.2
		c0.4,0.9,0.7,1.8,0.7,2.8v0.9c0,0.9-0.8,1.7-1.7,1.7h-1.1v2.8c0,0.3-0.2,0.6-0.6,0.6H9.2c-0.3,0-0.6-0.2-0.6-0.6v-2.8H7.4
		c-0.2,0.3-0.6,0.6-1,0.6H5.2c-0.9,0-1.7-0.8-1.7-1.7V9.5c0-0.9,0.8-1.7,1.7-1.7h0.6c0.7,0,1.4,0.5,1.6,1.1h1.2L8.6,4.4L8.6,4.4z
		 M9.8,8.9h6.7V5H9.8C9.8,5,9.8,8.9,9.8,8.9z M6.4,9.5c0-0.3-0.2-0.6-0.6-0.6H5.2c-0.3,0-0.6,0.2-0.6,0.6v6.2c0,0.3,0.2,0.6,0.6,0.6
		h1.1L6.4,9.5L6.4,9.5z M7.5,10h10.3l0.9,1.9c0.4,0.7,0.5,1.5,0.5,2.3v0.9c0,0.3-0.2,0.6-0.6,0.6H7.5V10z M9.8,16.8V19h6.7v-2.2H9.8
		z"/>
	<path class="st1" d="M11,6.1c0-0.2,0.2-0.4,0.4-0.4h3.4c0.2,0,0.4,0.2,0.4,0.4S15,6.5,14.8,6.5h-3.4C11.2,6.5,11,6.3,11,6.1z
		 M11,7.8c0-0.2,0.2-0.4,0.4-0.4h3.4c0.2,0,0.4,0.2,0.4,0.4c0,0.2-0.2,0.4-0.4,0.4h-3.4C11.2,8.2,11,8,11,7.8z M8.2,11.6
		c0-0.5,0.4-0.8,0.8-0.8h3c0.5,0,0.8,0.4,0.8,0.8v0.8c0,0.5-0.4,0.8-0.8,0.8h-3c-0.5,0-0.8-0.4-0.8-0.8V11.6z M9.1,11.6
		C9,11.6,9,11.6,9.1,11.6L9,12.4c0,0,0,0.1,0.1,0.1h3c0,0,0.1,0,0.1-0.1v-0.8c0,0,0-0.1-0.1-0.1H9.1z M7.5,15.8
		c0.2,0,0.4,0.2,0.4,0.4v2.2c0,0.8-0.7,1.5-1.5,1.5s-1.5-0.7-1.5-1.5v-1.7c0-0.2,0.2-0.4,0.4-0.4c0.2,0,0.4,0.2,0.4,0.4v1.7
		c0,0.4,0.3,0.7,0.7,0.7c0.4,0,0.7-0.3,0.7-0.7v-2.2C7.1,16,7.3,15.8,7.5,15.8z"/>
	<path class="st1" d="M8.2,14.3c0-0.2,0.2-0.4,0.4-0.4h1.1c0.2,0,0.4,0.2,0.4,0.4c0,0.2-0.2,0.4-0.4,0.4H8.6
		C8.4,14.7,8.2,14.5,8.2,14.3z M11,14.3c0-0.2,0.2-0.4,0.4-0.4h1.1c0.2,0,0.4,0.2,0.4,0.4c0,0.2-0.2,0.4-0.4,0.4h-1.1
		C11.2,14.7,11,14.5,11,14.3z"/>
	<path class="st2" d="M14.7,11.3c0,0.3-0.2,0.5-0.5,0.5c-0.3,0-0.5-0.2-0.5-0.5s0.2-0.5,0.5-0.5C14.5,10.8,14.7,11,14.7,11.3z"/>
	<path class="st2" d="M14.7,12.8c0,0.3-0.2,0.5-0.5,0.5c-0.3,0-0.5-0.2-0.5-0.5s0.2-0.5,0.5-0.5C14.5,12.3,14.7,12.5,14.7,12.8z"/>
	<path class="st2" d="M14.7,14.3c0,0.3-0.2,0.5-0.5,0.5c-0.3,0-0.5-0.2-0.5-0.5c0-0.3,0.2-0.5,0.5-0.5C14.5,13.7,14.7,14,14.7,14.3z
		"/>
	<path class="st2" d="M16.2,11.3c0,0.3-0.2,0.5-0.5,0.5s-0.5-0.2-0.5-0.5s0.2-0.5,0.5-0.5S16.2,11,16.2,11.3z"/>
	<path class="st2" d="M16.2,12.8c0,0.3-0.2,0.5-0.5,0.5s-0.5-0.2-0.5-0.5s0.2-0.5,0.5-0.5S16.2,12.5,16.2,12.8z"/>
	<path class="st2" d="M16.2,14.3c0,0.3-0.2,0.5-0.5,0.5s-0.5-0.2-0.5-0.5c0-0.3,0.2-0.5,0.5-0.5S16.2,14,16.2,14.3z"/>
	<path class="st2" d="M17.6,11.3c0,0.3-0.2,0.5-0.5,0.5s-0.5-0.2-0.5-0.5s0.2-0.5,0.5-0.5C17.4,10.8,17.6,11,17.6,11.3z"/>
	<path class="st2" d="M17.6,12.8c0,0.3-0.2,0.5-0.5,0.5s-0.5-0.2-0.5-0.5s0.2-0.5,0.5-0.5S17.6,12.5,17.6,12.8z"/>
	<path class="st2" d="M17.6,14.3c0,0.3-0.2,0.5-0.5,0.5s-0.5-0.2-0.5-0.5c0-0.3,0.2-0.5,0.5-0.5S17.6,14,17.6,14.3z"/>
</g>
</svg>
